HIERARCHY
ROOT hip
{
	OFFSET 0.000000 0.000000 0.000000 
	CHANNELS 6 Xposition Yposition Zposition Xrotation Zrotation Yrotation
	JOINT abdomen
	{
		OFFSET 0.000000 3.402643 0.000000 
		CHANNELS 3 Xrotation Zrotation Yrotation
		JOINT chest
		{
			OFFSET 0.000000 8.438565 -0.680529 
			CHANNELS 3 Xrotation Zrotation Yrotation
			JOINT neck
			{
				OFFSET 0.000000 10.207942 -0.272212 
				CHANNELS 3 Xrotation Zrotation Yrotation
				JOINT head
				{
					OFFSET 0.000000 3.130431 0.000000 
					CHANNELS 3 Xrotation Zrotation Yrotation
					End Site
					{
						OFFSET 0.000000 3.130435 0.000000 
					}
				}
			}
			JOINT lCollar
			{
				OFFSET 3.470700 6.669187 -0.816635 
				CHANNELS 3 Yrotation Zrotation Xrotation
				JOINT lShldr
				{
					OFFSET 3.198488 0.000000 0.000000 
					CHANNELS 3 Zrotation Yrotation Xrotation
					JOINT lForeArm
					{
						OFFSET 10.139888 0.000000 0.000000 
						CHANNELS 3 Yrotation Zrotation Xrotation
						JOINT lHand
						{
							OFFSET 8.370511 0.000000 0.000000 
							CHANNELS 3 Zrotation Yrotation Xrotation
							End Site
							{
								OFFSET 4.083176 0.000000 0.000000 
							}
						}
					}
				}
			}
			JOINT rCollar
			{
				OFFSET -3.470700 6.669187 -0.816635 
				CHANNELS 3 Yrotation Zrotation Xrotation
				JOINT rShldr
				{
					OFFSET -3.198488 0.000000 0.000000 
					CHANNELS 3 Zrotation Yrotation Xrotation
					JOINT rForeArm
					{
						OFFSET -10.139888 0.000000 0.000000 
						CHANNELS 3 Yrotation Zrotation Xrotation
						JOINT rHand
						{
							OFFSET -8.370511 0.000000 0.000000 
							CHANNELS 3 Zrotation Yrotation Xrotation
							End Site
							{
								OFFSET -4.083176 0.000000 0.000000 
							}
						}
					}
				}
			}
		}
	}
	JOINT lThigh
	{
		OFFSET 5.308129 -1.633274 1.361059 
		CHANNELS 3 Xrotation Zrotation Yrotation
		JOINT lShin
		{
			OFFSET -2.041588 -20.007561 0.000000 
			CHANNELS 3 Xrotation Zrotation Yrotation
			JOINT lFoot
			{
				OFFSET 0.000000 -19.190928 -1.224953 
				CHANNELS 3 Xrotation Yrotation Zrotation
				End Site
				{
					OFFSET 0.000000 -2.449906 4.627600 
				}
			}
		}
	}
	JOINT rThigh
	{
		OFFSET -5.308129 -1.633274 1.361059 
		CHANNELS 3 Xrotation Zrotation Yrotation
		JOINT rShin
		{
			OFFSET 2.041588 -20.007561 0.000000 
			CHANNELS 3 Xrotation Zrotation Yrotation
			JOINT rFoot
			{
				OFFSET 0.000000 -19.190928 -1.224953 
				CHANNELS 3 Xrotation Yrotation Zrotation
				End Site
				{
					OFFSET 0.000000 -2.449906 4.627600 
				}
			}
		}
	}
}
MOTION
Frames: 10
Frame Time: 0.011111
29.396477 52.363262 -64.416977 -0.990432 -0.010582 79.764275 30.859402 -0.953802 -7.440672 -25.442593 4.901557 -1.977633 -1.701754 -12.940952 -14.830859 45.537739 29.936768 -16.493193 2.031638 -6.576056 1.601014 -67.455688 -31.622864 21.944128 -50.528175 7.816985 8.361292 8.524705 12.647240 -50.432995 -3.949096 7.981833 2.064568 72.440384 24.854454 6.799289 50.822849 -7.892968 8.498131 -8.534408 -12.637552 36.712746 0.731062 7.649487 1.837515 20.579817 -5.764060 -3.583577 -18.052885 -0.036492 -2.854811 -13.422899 -15.464370 6.218755 34.590054 5.033387 5.424489 -20.590904 5.332790 4.693333 
29.428225 52.355480 -64.296219 -0.517086 0.268333 80.235786 31.131525 -1.443344 -7.806509 -25.385061 5.085745 -2.018430 -1.870152 -13.291690 -14.608200 46.114243 30.266222 -15.737473 2.031638 -6.576056 1.601014 -67.394768 -31.516037 22.030794 -50.570084 7.827155 8.380527 8.524705 12.647240 -50.403698 -3.949096 7.981833 2.064568 72.342232 24.878107 6.532354 50.791615 -7.887207 8.487917 -8.534408 -12.637552 36.947124 1.268499 7.231874 1.843325 20.027124 -5.784129 -3.497629 -17.764738 -0.247995 -2.938862 -13.323610 -16.458712 6.085212 34.252270 5.052454 5.390026 -20.554075 5.248215 4.662065 
29.458725 52.352055 -64.176704 -0.237958 0.468956 80.713989 31.383329 -1.697318 -7.962476 -25.366041 5.164244 -2.023671 -1.992154 -13.514009 -14.450605 46.498520 30.542061 -15.183210 2.031638 -6.576056 1.601014 -67.384468 -31.486841 22.050123 -50.549549 7.825483 8.379515 8.524705 12.647240 -50.413467 -3.949096 7.981833 2.064568 72.352646 24.887447 5.927212 50.843384 -7.894537 8.499196 -8.534408 -12.637552 36.820171 1.669372 7.039227 1.815150 19.587656 -5.793864 -3.430298 -17.497728 -0.524810 -3.036553 -13.189554 -17.222717 6.001453 33.904987 5.072425 5.335633 -20.384941 4.949625 4.538811 
29.483311 52.362324 -64.058739 -0.218498 0.549448 81.123650 31.572659 -1.687627 -7.868154 -25.454254 5.154069 -2.001518 -1.990015 -13.609653 -14.388830 46.731895 30.709532 -14.887816 2.031638 -6.576056 1.601014 -67.372704 -31.350227 22.113197 -50.590424 7.829433 8.391289 8.524705 12.647240 -50.335339 -3.949096 7.981833 2.064568 72.311005 24.850082 5.466920 50.843384 -7.894537 8.499196 -8.534408 -12.637552 36.859230 1.883216 7.172915 1.774732 19.248913 -5.801901 -3.401578 -17.281929 -0.921387 -3.167905 -13.024177 -17.643213 5.726304 33.496674 5.101948 5.289176 -20.095343 4.521399 4.365010 
29.504477 52.369175 -63.940468 -0.218095 0.511127 81.495003 31.612551 -1.627241 -7.762777 -25.473915 5.155167 -1.983823 -2.035421 -13.638606 -14.305707 46.941891 30.737938 -14.631459 2.031638 -6.576056 1.601014 -67.341530 -31.243103 22.161425 -50.580776 7.831396 8.389646 8.524705 12.647240 -50.364635 -3.949096 7.981833 2.064568 72.181633 24.845703 5.179462 50.780918 -7.883022 8.477428 -8.534408 -12.637552 37.044781 1.921418 7.338070 1.708993 19.031481 -5.813424 -3.373254 -17.193245 -1.257178 -3.266368 -12.977106 -18.065077 5.420172 33.048725 5.130354 5.237785 -19.562096 4.190438 4.238845 
29.525017 52.381626 -63.821892 -0.378505 0.441855 81.871124 31.635231 -1.340963 -7.559531 -25.463415 5.059146 -1.964339 -2.244544 -13.443835 -14.196077 47.086315 30.446709 -14.528412 2.031638 -6.576056 1.601014 -67.261353 -31.175531 22.189079 -50.528175 7.816985 8.361292 8.524705 12.647240 -50.413467 -3.949096 7.981833 2.064568 72.107796 24.760792 4.938687 50.854076 -7.898708 8.508354 -8.534408 -12.637552 37.288921 1.892850 7.689336 1.658540 18.835104 -5.822959 -3.337573 -17.087276 -1.523982 -3.358192 -12.858176 -18.287674 5.166156 32.561077 5.159836 5.173500 -18.904984 3.702417 4.051259 
29.554586 52.398121 -63.696152 -0.474059 0.348415 82.169609 31.581890 -1.143818 -7.402213 -25.404402 5.024007 -1.936205 -2.455626 -13.414753 -14.088593 47.281403 30.291096 -14.354520 2.031638 -6.576056 1.601014 -67.290283 -31.116652 22.052986 -50.444160 7.797149 8.331300 8.524705 12.647240 -50.608776 -3.949096 7.981833 2.064568 71.980881 24.805170 4.621914 50.791615 -7.887207 8.487917 -8.534408 -12.637552 37.210796 1.863020 7.981496 1.771068 18.607359 -5.831859 -3.318585 -16.931686 -1.831062 -3.448388 -12.820325 -18.562481 4.940646 32.103901 5.174401 5.136765 -18.139553 3.175516 3.877670 
29.600647 52.408699 -63.563251 -0.383628 0.287119 82.429626 31.491642 -1.229106 -7.298448 -25.306650 5.049341 -1.900191 -2.503334 -13.599428 -14.008608 47.665154 30.583073 -13.943784 2.031638 -6.576056 1.601014 -67.218857 -30.961090 22.149208 -50.413143 7.790540 8.311472 8.524705 12.647240 -50.716198 -3.949096 7.981833 2.064568 71.895569 24.886919 4.085952 50.665840 -7.857182 8.428594 -8.534408 -12.637552 37.015484 1.922407 8.063686 1.876259 18.339066 -5.840224 -3.275534 -16.737391 -2.084897 -3.550843 -12.848725 -19.039602 4.722908 31.634251 5.218627 5.048683 -17.265766 2.619309 3.692163 
29.636127 52.424263 -63.410122 -0.318438 0.214337 82.798805 31.431963 -1.351753 -7.179987 -25.268019 5.113281 -1.853243 -2.532483 -13.596543 -14.000504 47.854637 30.703705 -13.793609 2.031638 -6.576056 1.601014 -67.187843 -30.863733 22.334135 -50.402260 7.786870 8.312124 8.524705 12.647240 -50.628311 -3.949096 7.981833 2.064568 71.851974 24.810518 3.504350 50.791809 -7.886595 8.478172 -8.534408 -12.637552 37.054546 1.979890 8.186633 1.768001 18.000240 -5.840853 -3.245710 -16.580153 -2.231016 -3.604832 -12.816986 -19.397982 4.809397 31.155487 5.247799 4.984649 -16.498775 1.552038 3.380365 
29.682190 52.434845 -63.244545 -0.352382 0.223028 83.142403 31.468218 -1.379563 -6.994894 -25.180164 5.149508 -1.799281 -2.743969 -13.257991 -13.987607 47.854763 30.369101 -13.958534 2.031638 -6.576056 1.601014 -67.167900 -30.854164 22.338482 -50.308807 7.768138 8.270883 8.524705 12.647240 -50.608776 -3.949096 7.981833 2.064568 71.860420 24.780844 2.977334 50.874619 -7.900267 8.509425 -8.534408 -12.637552 37.161968 2.195558 8.356199 1.357701 17.583639 -5.861322 -3.171640 -16.431295 -2.072555 -3.545258 -12.604410 -19.606030 5.164356 30.669096 5.252946 4.942613 -16.101315 0.180004 3.001455 
